<svg xmlns="http://www.w3.org/2000/svg" version="1.1" xmlns:xlink="http://www.w3.org/1999/xlink" width="255.000000pt" height="142.000000pt"><svg version="1.0" xmlns="http://www.w3.org/2000/svg" width="255.000000pt" height="142.000000pt" viewBox="0 0 255.000000 142.000000" preserveAspectRatio="xMidYMid meet">

<g transform="translate(0.000000,142.000000) scale(0.100000,-0.100000)" fill="#000000" stroke="none">
<path d="M1600 1290 c-11 -11 -20 -27 -20 -35 0 -18 3 -17 -40 -5 -36 10 -70
5 -70 -11 0 -5 10 -9 23 -9 13 0 32 -6 42 -14 17 -12 12 -14 -41 -20 -32 -4
-75 -11 -94 -16 -19 -5 -66 -11 -104 -14 -66 -6 -237 -37 -301 -55 -16 -5 -57
-14 -90 -22 -112 -23 -242 -112 -279 -191 -23 -48 -23 -53 -10 -97 18 -61 18
-62 -11 -55 -37 9 -73 -3 -91 -31 -23 -35 -9 -44 17 -12 13 17 30 27 47 27 39
0 52 -12 59 -53 4 -30 3 -37 -11 -37 -9 0 -16 6 -16 14 0 21 -29 41 -42 28 -5
-5 -7 -16 -3 -22 6 -9 10 -9 16 1 7 11 9 10 9 -3 0 -9 9 -23 20 -31 12 -9 18
-20 14 -30 -3 -8 -1 -24 5 -35 10 -20 10 -20 -19 -5 -23 11 -30 21 -30 44 0
36 -16 38 -24 4 -8 -33 -6 -37 49 -65 48 -25 63 -22 49 7 -8 19 -12 85 -4 77
2 -3 10 -26 18 -52 21 -74 25 -207 9 -284 -13 -62 -9 -106 7 -79 4 6 12 8 18
5 6 -4 17 1 24 10 8 12 17 15 26 10 18 -11 42 -11 50 0 4 6 12 5 21 -2 11 -10
21 -10 41 -1 21 10 45 9 118 -4 119 -21 178 -25 178 -13 0 6 10 0 22 -12 17
-17 23 -34 23 -66 0 -40 -4 -48 -48 -86 -26 -23 -45 -45 -42 -48 3 -3 21 9 40
28 l34 33 40 -32 c23 -18 46 -31 52 -29 6 2 -7 17 -30 32 -23 16 -41 29 -41
30 0 1 4 17 10 36 11 37 -2 104 -22 116 -6 4 -43 13 -82 21 -39 8 -75 15 -81
17 -73 20 -109 33 -158 57 -35 18 -66 28 -78 24 -14 -5 -19 -2 -19 13 0 11
-15 33 -34 50 -31 27 -34 35 -32 76 2 31 -1 46 -10 46 -12 0 -48 131 -60 217
-4 32 -1 40 18 52 25 16 174 62 278 86 192 46 314 79 390 107 93 34 279 151
282 177 1 9 2 27 2 40 1 19 8 27 34 33 47 12 41 32 -7 25 -37 -5 -39 -4 -28
14 6 10 15 19 19 19 5 0 8 5 8 10 0 16 -18 12 -40 -10z m-180 -154 c0 -3 -26
-13 -57 -22 -32 -10 -64 -24 -71 -33 -9 -11 -15 -12 -24 -3 -9 9 -8 13 3 17
105 39 149 51 149 41z m75 -15 c-6 -5 -21 -12 -35 -15 l-25 -7 25 15 c28 17
50 21 35 7z m-455 -31 c0 -5 -4 -10 -10 -10 -5 0 -10 5 -10 10 0 6 5 10 10 10
6 0 10 -4 10 -10z m100 -16 c-41 -13 -79 -23 -85 -23 -15 1 128 48 145 48 8
-1 -19 -12 -60 -25z m280 12 c0 -2 -7 -6 -15 -10 -8 -3 -15 -1 -15 4 0 6 7 10
15 10 8 0 15 -2 15 -4z m-381 -40 c-6 -6 -187 -76 -196 -76 -5 0 -25 -9 -46
-20 -22 -12 -47 -18 -58 -15 -22 7 -17 20 14 36 22 12 22 12 3 -10 -19 -20
-17 -20 40 5 91 40 259 96 243 80z m121 -46 c-8 -5 -19 -10 -25 -10 -5 0 -3 5
5 10 8 5 20 10 25 10 6 0 3 -5 -5 -10z m-90 -20 c0 -5 -9 -10 -19 -10 -11 0
-28 -2 -38 -5 -10 -3 -4 1 12 9 36 18 45 19 45 6z m-255 -75 c-53 -16 -132
-29 -123 -20 7 8 120 32 148 33 8 0 -3 -6 -25 -13z m44 -29 c-10 -8 -82 -15
-73 -6 5 4 23 10 39 12 30 3 42 1 34 -6z m-132 -568 c-3 -8 -6 -5 -6 6 -1 11
2 17 5 13 3 -3 4 -12 1 -19z"></path>
<path d="M1633 1151 c-13 -11 -27 -31 -33 -47 -12 -30 -6 -59 10 -49 5 3 10 2
10 -3 0 -13 86 -67 130 -81 44 -15 87 -52 101 -88 13 -36 2 -175 -22 -270 -48
-190 -134 -264 -348 -299 -46 -7 -85 -15 -86 -16 -13 -21 -35 -83 -40 -114 -4
-28 -1 -49 13 -76 l19 -36 -34 -32 c-48 -46 -32 -50 18 -5 l41 37 39 -38 c21
-21 42 -35 45 -31 9 9 -63 77 -81 77 -37 0 -61 123 -31 153 16 16 126 31 164
23 18 -4 22 -2 18 10 -6 15 4 14 53 -4 10 -4 13 -1 9 9 -4 11 3 14 33 11 29
-3 51 3 85 23 26 15 44 22 40 16 -4 -6 -1 -11 8 -11 8 0 17 6 20 13 3 9 7 8
15 -4 6 -9 22 -14 41 -13 39 3 46 9 31 28 -14 17 -39 111 -50 189 -5 40 -4 79
5 121 7 33 13 82 14 107 0 87 57 117 133 70 49 -30 66 -84 43 -130 -22 -41
-71 -71 -118 -71 -21 0 -38 -4 -38 -10 0 -5 19 -10 42 -10 75 0 138 62 138
137 0 45 -18 74 -64 102 -39 25 -83 27 -113 6 -20 -14 -20 -13 -16 28 4 31 -1
56 -18 92 -25 53 -111 145 -159 170 -17 9 -30 20 -30 25 0 15 -12 12 -37 -9z
m194 -643 c-3 -8 -6 -5 -6 6 -1 11 2 17 5 13 3 -3 4 -12 1 -19z m-110 -143
c-23 -22 -33 -18 -12 5 10 11 20 18 23 16 2 -3 -3 -12 -11 -21z m-7 -39 c0 -3
-4 -8 -10 -11 -5 -3 -10 -1 -10 4 0 6 5 11 10 11 6 0 10 -2 10 -4z m-230 -40
c0 -11 -19 -15 -25 -6 -3 5 1 10 9 10 9 0 16 -2 16 -4z"></path>
<path d="M1705 922 c16 -15 97 -22 92 -9 -2 7 -26 13 -53 15 -31 2 -45 0 -39
-6z"></path>
<path d="M1702 874 c-48 -33 -12 -134 48 -134 40 0 65 38 56 83 -7 39 -31 75
-42 64 -4 -4 -2 -13 4 -19 16 -16 15 -29 -1 -22 -18 7 -41 -22 -33 -42 3 -9
15 -18 26 -21 31 -8 24 -23 -11 -23 -25 0 -32 6 -44 34 -18 42 -11 64 21 72
13 3 24 10 24 15 0 14 -23 11 -48 -7z"></path>
<path d="M743 813 c-12 -2 -27 -12 -35 -20 -11 -15 -11 -16 7 -9 11 5 39 11
62 13 24 3 40 9 37 14 -5 9 -31 10 -71 2z"></path>
<path d="M1927 794 c-4 -4 -7 -18 -7 -31 0 -12 -4 -23 -9 -23 -13 0 -6 -79 7
-92 15 -15 45 10 37 30 -3 10 -1 12 10 8 8 -3 21 -8 28 -11 10 -4 14 7 16 45
2 50 -5 60 -27 38 -10 -10 -12 -7 -10 12 2 19 -2 26 -17 28 -12 2 -24 0 -28
-4z m30 -23 c-2 -10 -1 -25 3 -32 7 -10 12 -10 26 2 16 13 17 12 11 -4 -4 -10
-7 -25 -7 -33 0 -11 -4 -12 -19 -4 -33 17 -44 12 -37 -15 4 -14 2 -25 -4 -25
-13 0 -13 59 1 99 12 33 35 44 26 12z"></path>
<path d="M742 773 c-50 -44 -25 -133 37 -133 60 0 80 66 35 119 -30 36 -44 38
-72 14z m69 -39 c28 -46 17 -69 -32 -69 -27 0 -35 5 -43 27 -12 35 6 78 33 78
11 0 28 -15 42 -36z"></path>
<path d="M750 711 c0 -30 28 -50 50 -36 26 16 2 65 -32 65 -13 0 -18 -8 -18
-29z"></path>
<path d="M498 653 c-5 -24 10 -71 35 -107 20 -28 87 -65 120 -66 32 0 17 16
-27 28 -57 15 -106 69 -106 117 0 37 -16 56 -22 28z"></path>
<path d="M1095 634 c-148 -52 -177 -62 -207 -68 -57 -13 -47 -91 17 -137 39
-28 130 -48 292 -65 78 -8 293 39 362 79 58 34 126 121 119 153 -9 47 -141 74
-363 74 -112 0 -127 -3 -220 -36z m103 -16 c-15 -44 -16 -45 -33 -22 -19 26
-19 42 3 47 39 10 41 8 30 -25z m157 0 c0 -31 -3 -33 -36 -36 -31 -3 -37 1
-43 20 -11 43 -8 48 37 48 42 0 43 -1 42 -32z m115 15 c0 -10 -7 -26 -15 -36
-13 -18 -14 -18 -24 2 -18 33 -13 51 14 51 17 0 25 -5 25 -17z m80 -12 c0 -17
-18 -31 -41 -31 -5 0 -9 11 -9 25 0 20 5 25 25 25 18 0 25 -5 25 -19z m78 -8
c2 -9 -7 -13 -27 -13 -21 0 -31 5 -31 16 0 19 51 16 58 -3z m-534 -35 c7 -35
-4 -48 -42 -48 -15 0 -26 8 -33 26 -11 31 -11 30 21 43 40 16 47 13 54 -21z
m-124 -48 c0 -35 -3 -40 -24 -40 -30 0 -62 43 -43 58 7 5 19 12 27 15 33 12
40 7 40 -33z m596 -58 c-18 -18 -29 -12 -20 11 3 9 12 13 21 10 13 -5 13 -8
-1 -21z m-62 -18 c8 -20 8 -19 -21 -28 -20 -6 -23 -4 -23 18 0 19 5 26 19 26
10 0 22 -7 25 -16z m-70 -10 c3 -9 4 -20 0 -25 -5 -9 -54 -13 -54 -5 0 2 -3
11 -6 19 -3 10 2 17 13 20 33 9 41 7 47 -9z m-214 -13 c18 -35 12 -51 -20 -51
-39 0 -62 37 -34 57 25 18 42 16 54 -6z m135 -2 c8 -24 7 -24 -22 -33 -20 -6
-23 -4 -23 17 0 41 34 53 45 16z m-217 -18 c3 -21 1 -23 -25 -16 -35 8 -37 10
-29 30 9 25 50 15 54 -14z m-83 8 c10 -15 2 -19 -23 -12 -12 3 -19 9 -16 14 7
12 31 11 39 -2z m221 -13 c19 -20 18 -26 -6 -26 -13 0 -20 7 -20 20 0 24 6 25
26 6z"></path>
<path d="M1860 610 c0 -5 5 -10 10 -10 6 0 10 5 10 10 0 6 -4 10 -10 10 -5 0
-10 -4 -10 -10z"></path>
</g>
</svg><style>@media (prefers-color-scheme: light) { :root { filter: none; } }
@media (prefers-color-scheme: dark) { :root { filter: none; } }
</style></svg>